<svg xmlns="http://www.w3.org/2000/svg" fill="#000000" class="bi bi-gitlab" viewBox="0 0 16 16" id="Gitlab--Streamline-Bootstrap" height="16" width="16">
  <desc>
    Gitlab Streamline Icon: https://streamlinehq.com
  </desc>
  <path d="m15.734 6.1 -0.022 -0.058L13.534 0.358a0.57 0.57 0 0 0 -0.563 -0.356 0.6 0.6 0 0 0 -0.328 0.122 0.6 0.6 0 0 0 -0.193 0.294l-1.47 4.499H5.025l-1.47 -4.5A0.572 0.572 0 0 0 2.47 0.358L0.289 6.04l-0.022 0.057A4.044 4.044 0 0 0 1.61 10.77l0.007 0.006 0.02 0.014 3.318 2.485 1.64 1.242 1 0.755a0.67 0.67 0 0 0 0.814 0l1 -0.755 1.64 -1.242 3.338 -2.5 0.009 -0.007a4.05 4.05 0 0 0 1.34 -4.668Z" stroke-width="1"></path>
</svg>